<svg xmlns="http://www.w3.org/2000/svg" xmlns:xlink="http://www.w3.org/1999/xlink" width="500" zoomAndPan="magnify" viewBox="0 0 375 374.999991" height="500" preserveAspectRatio="xMidYMid meet" version="1.0"><defs><clipPath id="26760b751f"><path d="M 1.167969 0.8125 L 373.917969 0.8125 L 373.917969 374.3125 L 1.167969 374.3125 Z M 1.167969 0.8125 " clip-rule="nonzero"/></clipPath></defs><g clip-path="url(#26760b751f)"><path fill="#ff9800" d="M 382.917969 191.6875 C 382.917969 297.140625 297.5 382.5625 192.042969 382.5625 C 86.585938 382.5625 1.167969 297.140625 1.167969 191.6875 C 1.167969 86.230469 86.585938 0.8125 192.042969 0.8125 C 297.5 0.8125 382.917969 86.230469 382.917969 191.6875 Z M 382.917969 191.6875 " fill-opacity="1" fill-rule="evenodd"/></g><path fill="#ffffff" d="M 192.042969 206.367188 C 151.511719 206.367188 118.628906 173.484375 118.628906 132.957031 C 118.628906 92.425781 151.511719 59.542969 192.042969 59.542969 C 232.574219 59.542969 265.457031 92.425781 265.457031 132.957031 C 265.457031 173.484375 232.574219 206.367188 192.042969 206.367188 Z M 53.933594 275.421875 C 54.085938 274.125 54.621094 272.898438 55.464844 271.828125 C 73.585938 249.195312 102.1875 235.734375 140.652344 235.734375 L 243.433594 235.734375 C 281.898438 235.734375 310.5 249.195312 328.621094 271.828125 C 329.464844 272.898438 330 274.125 330.152344 275.421875 C 301.855469 322.070312 250.621094 353.195312 192.042969 353.195312 C 133.464844 353.195312 82.230469 322.070312 53.933594 275.421875 Z M 53.933594 275.421875 " fill-opacity="1" fill-rule="evenodd"/></svg>